<?xml version="1.0" encoding="utf-8"?>
<!-- Generator: Adobe Illustrator 24.0.1, SVG Export Plug-In . SVG Version: 6.00 Build 0)  -->
<svg version="1.1" id="Layer_1" xmlns="http://www.w3.org/2000/svg" xmlns:xlink="http://www.w3.org/1999/xlink" x="0px" y="0px"
	 viewBox="0 0 60 60" style="enable-background:new 0 0 60 60;" xml:space="preserve">
<style type="text/css">
	.st0{fill:#006EFF;}
</style>
<g>
	<path class="st0" d="M31.4,35.7l2.7,1.7l0.5-0.4l0.6-0.5l16.7-12.6c0.5-0.2,0.9-0.5,1.2-0.9l0.2-0.1l-0.1,0
		c0.3-0.4,0.5-0.9,0.5-1.4v-0.1h-2.9c-0.1,0.2-0.2,0.3-0.3,0.5l0.1,0l-0.2,0.1c-0.3,0.3-0.6,0.6-1.1,0.8L33.4,35L33,35.3l-0.4,0.3
		c-1.2-1.5-3.4-0.7-4.6,0.3c-0.2-0.1-0.4-0.2-0.5-0.3l-0.4-0.3L26.7,35L10.6,22.9c-0.4-0.2-0.8-0.5-1.1-0.8L9.3,22l0,0
		c-0.1-0.2-0.2-0.3-0.3-0.5H6.2v0.1c0,0.5,0.2,1,0.5,1.4l-0.1,0l0.2,0.1c0.3,0.4,0.7,0.7,1.2,0.9l16.9,12.7l0.7,0.5l3.2-1.4
		L31.4,35.7z"/>
	<path class="st0" d="M6.2,51.1h2.9c0.1-0.2,0.2-0.3,0.3-0.5l-0.1,0l0.2-0.1c0.3-0.3,0.6-0.6,1.1-0.8L27.4,37c1.4-1.1,3.7-1.1,5.1,0
		l16.8,12.7c0.4,0.2,0.8,0.5,1.1,0.8l0.2,0.1l0,0c0.1,0.2,0.2,0.3,0.3,0.5h2.9V51c0-0.5-0.2-1-0.5-1.4l0.1,0l-0.2-0.1
		c-0.3-0.4-0.7-0.7-1.2-0.9l-19-14.3c-1.6-1.2-4.2-1.2-5.8,0l-19,14.3c-0.5,0.2-0.9,0.5-1.2,0.9l-0.2,0.1l0.1,0
		C6.4,50,6.2,50.5,6.2,51V51.1z"/>
	<path class="st0" d="M53.5,20.6L53.5,20.6L53.5,20.6l0-0.1l-0.1-0.1c-0.2-0.2-0.3-0.4-0.6-0.5c-0.2-0.2-0.4-0.3-0.7-0.4l-9.6-7.2
		L32.9,5c-0.8-0.6-1.9-0.9-2.9-0.9S27.9,4.4,27.1,5l-4.8,3.6l-4.8,3.6l-1.6,1.2l-1.6,1.2L11,17.1l-3.2,2.4c-0.2,0.1-0.5,0.3-0.7,0.4
		c-0.2,0.2-0.4,0.3-0.5,0.5l-0.1,0.1l-0.1,0.1l0,0l0,0c-0.2,0.2-0.3,0.4-0.4,0.7S6,21.7,6,22v15.1v15.1c0,0.8,0.4,1.6,1.2,2.1
		s1.7,0.9,2.8,0.9H30h20.1c1.1,0,2.1-0.3,2.8-0.9S54,53,54,52.2V37.1V22c0-0.3,0-0.5-0.1-0.7C53.8,21,53.7,20.8,53.5,20.6z
		 M51.2,49.6c0,0.4-0.1,0.7-0.3,1s-0.4,0.6-0.7,0.8c-0.3,0.2-0.7,0.4-1.1,0.6c-0.4,0.1-0.9,0.2-1.4,0.2h-8.9H30h-8.9h-8.9
		c-0.5,0-0.9-0.1-1.4-0.2c-0.4-0.1-0.8-0.3-1.1-0.6c-0.3-0.2-0.6-0.5-0.7-0.8s-0.3-0.7-0.3-1v-6.7v-6.7v-6.7v-6.7c0-0.1,0-0.2,0-0.3
		c0-0.1,0-0.2,0.1-0.3C8.9,22.1,9,22,9,21.9c0.1-0.1,0.1-0.2,0.2-0.3l0,0l0,0l0,0l0,0l0,0l0,0l0,0l0,0c0.1-0.1,0.1-0.2,0.2-0.2
		s0.2-0.1,0.3-0.2s0.2-0.1,0.3-0.2s0.2-0.1,0.3-0.2l1-0.8l1-0.8l1-0.8l1-0.8l0.1-1.3l0.1-1.3l0.1-1.3l0.1-1.3l1.7-0.1l1.7-0.1
		l1.7-0.1l1.7-0.1l1.6-1.1l1.6-1.1l1.6-1.1l1.6-1.1c0.4-0.3,0.8-0.5,1.2-0.6c0.4-0.1,0.9-0.2,1.4-0.2s0.9,0.1,1.4,0.2
		c0.4,0.1,0.9,0.3,1.2,0.6l4.3,3.2l8.3,1.4l0.5,5.3l4,3c0.1,0.1,0.2,0.1,0.3,0.2c0.1,0.1,0.2,0.1,0.3,0.2s0.2,0.1,0.3,0.2
		c0.1,0.1,0.2,0.2,0.2,0.2l0,0l0,0l0,0l0,0l0,0l0,0l0,0l0,0c0.1,0.1,0.1,0.2,0.2,0.3c0.1,0.1,0.1,0.2,0.1,0.3s0.1,0.2,0.1,0.3
		s0,0.2,0,0.3v6.7v6.7v6.7V49.6z"/>
	<path class="st0" d="M38,20.1H22c-0.6,0-1.1-0.5-1.1-1.1v0c0-0.6,0.5-1.1,1.1-1.1H38c0.6,0,1.1,0.5,1.1,1.1v0
		C39.1,19.6,38.6,20.1,38,20.1z"/>
	<path class="st0" d="M38,24.5H22c-0.6,0-1.1-0.5-1.1-1.1v0c0-0.6,0.5-1.1,1.1-1.1H38c0.6,0,1.1,0.5,1.1,1.1v0
		C39.1,24,38.6,24.5,38,24.5z"/>
	<path class="st0" d="M38,28.8H22c-0.6,0-1.1-0.5-1.1-1.1v0c0-0.6,0.5-1.1,1.1-1.1H38c0.6,0,1.1,0.5,1.1,1.1v0
		C39.1,28.3,38.6,28.8,38,28.8z"/>
	<path class="st0" d="M14.7,27.3v-5.2v-5.9c0-0.9,0.4-1.7,0.9-2.3c0.6-0.6,1.4-0.9,2.3-0.9H30h12.1c0.9,0,1.7,0.4,2.3,0.9
		c0.6,0.6,0.9,1.4,0.9,2.3v11.1h2.5v-4.4v-7.6c0-1.5-0.6-2.8-1.6-3.8S44,10,42.5,10H30H17.5c-1.5,0-2.8,0.6-3.8,1.6
		s-1.6,2.3-1.6,3.8v5.2v5.2v1.6H14.7z"/>
</g>
</svg>
